<svg xmlns="http://www.w3.org/2000/svg"  viewBox="0 0 64 64" width="512px" height="512px"><radialGradient id="7zJDfRLVGoy_7GYc5glFYa" cx="32" cy="-246" r="31.016" gradientTransform="matrix(1 0 0 -1 0 -214)" gradientUnits="userSpaceOnUse"><stop offset="0" stop-color="#eed7a2"/><stop offset=".106" stop-color="#f1dcab"/><stop offset=".437" stop-color="#f8e8c3"/><stop offset=".744" stop-color="#fcefd2"/><stop offset="1" stop-color="#fef2d7"/></radialGradient><path fill="url(#7zJDfRLVGoy_7GYc5glFYa)" d="M59,20h1.5c2.168,0,3.892-1.998,3.422-4.243C63.58,14.122,62.056,13,60.385,13H56 c-1.105,0-2-0.895-2-2s0.895-2,2-2h0.385c1.67,0,3.195-1.122,3.537-2.757C60.392,3.998,58.668,2,56.5,2H34.006H32.5h-26 C4.575,2,3,3.575,3,5.5S4.575,9,6.5,9H8c1.105,0,2,0.895,2,2s-0.895,2-2,2H4.615c-1.67,0-3.195,1.122-3.537,2.757 C0.608,18.002,2.332,20,4.5,20H18v13H3.615c-1.67,0-3.195,1.122-3.537,2.757C-0.392,38.002,1.332,40,3.5,40H5c1.105,0,2,0.895,2,2 s-0.895,2-2,2H4.5c-2.168,0-3.892,1.998-3.422,4.243C1.42,49.878,2.945,51,4.615,51H8c1.105,0,2,0.895,2,2s-0.895,2-2,2H6.615 c-1.67,0-3.195,1.122-3.537,2.757C2.608,60.002,4.332,62,6.5,62h24.494H32.5h24c1.925,0,3.5-1.575,3.5-3.5S58.425,55,56.5,55H56 c-1.105,0-2-0.895-2-2s0.895-2,2-2h4.385c1.67,0,3.195-1.122,3.537-2.757C64.392,45.998,62.668,44,60.5,44H47V31h12.385 c1.67,0,3.195-1.122,3.537-2.757C63.392,25.998,61.668,24,59.5,24H59c-1.105,0-2-0.895-2-2S57.895,20,59,20z"/><linearGradient id="7zJDfRLVGoy_7GYc5glFYb" x1="30.505" x2="30.505" y1="54" y2="11.176" gradientUnits="userSpaceOnUse"><stop offset="0" stop-color="#155cde"/><stop offset=".287" stop-color="#1868e0"/><stop offset=".8" stop-color="#2187e7"/><stop offset="1" stop-color="#2595ea"/></linearGradient><path fill="url(#7zJDfRLVGoy_7GYc5glFYb)" d="M21.579,45.895V12.115l-1.402-0.939C14.215,13.57,10,19.393,10,26.211v11.579 C10,46.742,17.258,54,26.211,54h11.579c5.468,0,10.286-2.719,13.22-6.867v-1.238H21.579z"/><path fill="#fff" d="M37.789,10H26.211c-2.136,0-4.17,0.424-6.037,1.174c-3.859,3.747-6.7,9.858-6.7,15.036 c0,7.796,1.071,12.379,4.244,16.838c0.271,0.38,0.462,0.82,0.49,1.286c0.049,0.826,0.397,1.772-0.601,3.024 c-0.525,0.658-0.035,1.63,0.806,1.659c0.884,0.031,1.667-0.027,3.612-0.884c0.636-0.28,1.374-0.268,1.987,0.06 c3.846,2.058,8.358,2.333,12.619,2.333c5.414,0,10.814-1.204,14.378-3.377c1.877-2.645,2.99-5.87,2.99-9.36V26.211 C54,17.258,46.742,10,37.789,10z"/><linearGradient id="7zJDfRLVGoy_7GYc5glFYc" x1="46.417" x2="46.417" y1="35.999" y2="26.031" gradientUnits="userSpaceOnUse"><stop offset="0" stop-color="#155cde"/><stop offset=".287" stop-color="#1868e0"/><stop offset=".8" stop-color="#2187e7"/><stop offset="1" stop-color="#2595ea"/></linearGradient><path fill="url(#7zJDfRLVGoy_7GYc5glFYc)" d="M46.417,35.999c-2.527,0-4.583-2.235-4.583-4.984s2.056-4.984,4.583-4.984 c2.527,0,4.583,2.235,4.583,4.984S48.944,35.999,46.417,35.999z M46.417,28.667c-1.011,0-1.833,1.054-1.833,2.348 c0,1.294,0.822,2.348,1.833,2.348s1.833-1.054,1.833-2.348C48.25,29.721,47.428,28.667,46.417,28.667z"/><linearGradient id="7zJDfRLVGoy_7GYc5glFYd" x1="39.543" x2="39.543" y1="35.999" y2="22.251" gradientUnits="userSpaceOnUse"><stop offset="0" stop-color="#155cde"/><stop offset=".287" stop-color="#1868e0"/><stop offset=".8" stop-color="#2187e7"/><stop offset="1" stop-color="#2595ea"/></linearGradient><path fill="url(#7zJDfRLVGoy_7GYc5glFYd)" d="M39.543,35.999c-0.76,0-1.375-0.616-1.375-1.375V23.626c0-0.759,0.615-1.375,1.375-1.375 s1.375,0.616,1.375,1.375v10.999C40.918,35.383,40.303,35.999,39.543,35.999z"/><linearGradient id="7zJDfRLVGoy_7GYc5glFYe" x1="32.268" x2="32.268" y1="36" y2="26.032" gradientUnits="userSpaceOnUse"><stop offset="0" stop-color="#155cde"/><stop offset=".287" stop-color="#1868e0"/><stop offset=".8" stop-color="#2187e7"/><stop offset="1" stop-color="#2595ea"/></linearGradient><path fill="url(#7zJDfRLVGoy_7GYc5glFYe)" d="M35.533,26.261c-0.517,0-0.961,0.289-1.196,0.709c-0.696-0.588-1.547-0.939-2.47-0.939 c-2.341,0-4.239,2.231-4.239,4.984c0,2.752,1.898,4.984,4.239,4.984c0.923,0,1.774-0.35,2.47-0.939 c0.235,0.422,0.679,0.709,1.196,0.709c0.76,0,1.375-0.616,1.375-1.375v-6.76C36.908,26.877,36.293,26.261,35.533,26.261z M32.267,33.364c-1.044,0-1.89-1.051-1.89-2.348c0-1.297,0.846-2.348,1.89-2.348c1.044,0,1.89,1.051,1.89,2.348 C34.158,32.313,33.312,33.364,32.267,33.364z"/><linearGradient id="7zJDfRLVGoy_7GYc5glFYf" x1="22.814" x2="22.814" y1="35.655" y2="23.167" gradientUnits="userSpaceOnUse"><stop offset="0" stop-color="#155cde"/><stop offset=".287" stop-color="#1868e0"/><stop offset=".8" stop-color="#2187e7"/><stop offset="1" stop-color="#2595ea"/></linearGradient><path fill="url(#7zJDfRLVGoy_7GYc5glFYf)" d="M26.253,35.655h-6.76c-0.565,0-1.073-0.313-1.33-0.815 c-0.256-0.503-0.209-1.098,0.122-1.554l5.289-7.37h-3.966c-0.76,0-1.375-0.616-1.375-1.375s0.615-1.375,1.375-1.375h6.645 c0.515,0,0.988,0.288,1.223,0.747c0.236,0.458,0.194,1.011-0.106,1.43l-5.426,7.562h4.31c0.76,0,1.375,0.616,1.375,1.375 C27.628,35.039,27.013,35.655,26.253,35.655z M20.524,34.885l-0.008,0.013C20.517,34.893,20.521,34.889,20.524,34.885z"/></svg>